<svg height="512pt" viewBox="0 0 512 512" width="512pt" xmlns="http://www.w3.org/2000/svg" xmlns:xlink="http://www.w3.org/1999/xlink"><linearGradient id="a" gradientUnits="userSpaceOnUse" x1="0" x2="512" y1="256" y2="256"><stop offset="0" stop-color="#00f1ff"/><stop offset=".231" stop-color="#00d8ff"/><stop offset=".5138" stop-color="#00c0ff"/><stop offset=".7773" stop-color="#00b2ff"/><stop offset="1" stop-color="#00adff"/></linearGradient><path d="m512 256c0 141.386719-114.613281 256-256 256s-256-114.613281-256-256 114.613281-256 256-256 256 114.613281 256 256zm0 0" fill="url(#a)"/><g fill="#fff"><path d="m147.390625 71.625c-8.195313-1.210938-15.820313 4.441406-17.035156 12.640625l-46.726563 315.070313c-1.21875 8.191406 4.441406 15.820312 12.636719 17.035156.746094.113281 1.484375.164062 2.21875.164062 7.3125 0 13.714844-5.351562 14.820313-12.800781l46.726562-315.070313c1.214844-8.195312-4.445312-15.820312-12.640625-17.039062zm0 0"/><path d="m428.375 399.335938-46.726562-315.070313c-1.214844-8.195313-8.84375-13.855469-17.039063-12.640625-8.195313 1.21875-13.851563 8.84375-12.636719 17.039062l46.726563 315.070313c1.101562 7.449219 7.507812 12.800781 14.816406 12.800781.730469 0 1.476563-.050781 2.21875-.164062 8.195313-1.214844 13.855469-8.839844 12.640625-17.035156zm0 0"/><path d="m256 248.320312c8.285156 0 15-6.714843 15-15v-17.355468c0-8.285156-6.714844-15-15-15s-15 6.714844-15 15v17.355468c0 8.285157 6.714844 15 15 15zm0 0"/><path d="m256 184.238281c8.285156 0 15-6.714843 15-15v-17.355469c0-8.285156-6.714844-15-15-15s-15 6.714844-15 15v17.355469c0 8.285157 6.714844 15 15 15zm0 0"/><path d="m256 120.15625c8.285156 0 15-6.71875 15-15v-18.691406c0-8.285156-6.714844-15-15-15s-15 6.714844-15 15v18.691406c0 8.28125 6.714844 15 15 15zm0 0"/><path d="m317.257812 357.367188-47.90625-47.3125v-27.339844c0-7.535156-5.703124-15.351563-13.238281-15.351563-7.535156 0-12.796875 7.820313-12.796875 15.351563v26.71875l-47.554687 47.429687c-2.097657 1.675781-3.175781 4.359375-3.175781 7.046875-.003907 6.527344 6.8125 10.8125 12.691406 7.980469l38.707031-21.171875v42.472656l-12.742187 12.371094c-1.109376 1.007812-1.738282 2.441406-1.746094 3.941406-.011719 2.96875 2.390625 5.382813 5.359375 5.382813l43.421875-.050781c2.957031 0 5.359375-2.398438 5.359375-5.359376v-.632812c0-1.476562-.785157-2.710938-1.863281-3.726562l-12.421876-12.085938v-42.265625l38.882813 21.183594c5.878906 2.824219 12.691406-1.460938 12.691406-7.980469v-.003906c0-2.695313-1.558593-4.917969-3.667969-6.597656zm0 0"/></g></svg>